<svg width="1200" height="630" viewBox="0 0 1200 630" fill="none" xmlns="http://www.w3.org/2000/svg" role="img" aria-label="BeFood Open Graph image">
  <defs>
    <linearGradient id="bg" x1="80" y1="40" x2="1160" y2="610" gradientUnits="userSpaceOnUse">
      <stop stop-color="#F7FCF8"/>
      <stop offset="1" stop-color="#E5F0E8"/>
    </linearGradient>
  </defs>
  <rect width="1200" height="630" rx="36" fill="url(#bg)"/>
  <rect x="64" y="64" width="1072" height="502" rx="36" fill="#FFFFFF"/>
  <rect x="110" y="146" width="494" height="22" rx="11" fill="#BDDAC4"/>
  <rect x="110" y="184" width="580" height="78" rx="20" fill="#2F7A4F" fill-opacity="0.14"/>
  <text x="110" y="240" fill="#1B2A20" font-family="Arial, sans-serif" font-size="70" font-weight="700">BeFood</text>
  <text x="110" y="302" fill="#4D5D53" font-family="Arial, sans-serif" font-size="34" font-weight="500">Analyse photo des repas et guidance nutritionnelle.</text>
  <text x="110" y="348" fill="#4D5D53" font-family="Arial, sans-serif" font-size="34" font-weight="500">Comprendre, progresser, rester motivé.</text>
  <rect x="760" y="126" width="290" height="420" rx="28" fill="#F2F8F3"/>
  <rect x="788" y="170" width="234" height="150" rx="20" fill="#DCECE0"/>
  <rect x="788" y="346" width="234" height="20" rx="10" fill="#B6D2BE"/>
  <rect x="788" y="382" width="198" height="14" rx="7" fill="#CEDFD2"/>
  <rect x="788" y="408" width="178" height="14" rx="7" fill="#CEDFD2"/>
  <rect x="788" y="446" width="140" height="48" rx="14" fill="#2F7A4F"/>
</svg>
